<svg width="354" height="150" viewBox="0 0 354 150" fill="none" xmlns="http://www.w3.org/2000/svg">
<path d="M351.412 121.536L348.93 122.078C348.705 122.127 348.522 122.162 348.353 122.197C347.959 122.275 347.657 122.345 347.368 122.429C336.525 125.587 325.174 127.043 313.627 126.747C306.538 126.565 303.367 124.209 302.312 118.33C301.904 116.037 301.602 113.66 301.32 111.353C301.053 109.216 300.779 107 300.406 104.813C298.965 96.2972 292.291 91.2268 283.022 91.5714C279.168 91.7191 275.42 92.6614 271.792 93.6178C282.502 85.9807 292.544 77.6614 302.333 69.546C306.503 66.0861 310.821 62.5136 315.118 59.0467L317.038 57.4995L315.406 55.65C314.71 54.8624 314 54.0748 313.297 53.2942C311.665 51.4798 309.977 49.6092 308.458 47.7175C306.679 45.4953 304.626 44.8061 301.982 45.5304C300.8 45.8539 299.485 46.086 298.057 46.2196C295.941 46.4165 293.824 46.6275 291.7 46.8314C285.997 47.394 280.104 47.9707 274.309 48.3223C260.744 49.1521 247.171 49.7569 234.436 50.3124C231.524 50.439 228.62 50.4039 225.547 50.3687C224.126 50.3546 222.684 50.3335 221.229 50.3335H218.69L220.04 68.6669L283.121 62.9356C278.367 66.8948 273.62 70.8892 268.979 74.7851C248.135 92.2957 226.573 110.397 203.873 126.923L201.637 128.548L217.227 144.068L219.351 142.078C219.646 141.797 219.907 141.565 220.153 141.318C230.554 131.29 241.313 120.925 253.683 112.19C260.146 107.626 265.948 104.638 273.191 104.813C276.644 104.905 280.898 106.058 281.559 111.044C282.003 114.391 282.326 117.837 282.642 121.171C282.755 122.366 282.868 123.555 282.987 124.75C283.74 132.373 287.066 137.5 293.163 140.425C295.048 141.332 297.031 141.93 298.944 142.514L299.605 142.718C301.088 143.175 302.643 143.358 304.225 143.266C310.997 142.887 350.041 140.58 351.722 140.306L354 139.933L351.391 121.529L351.412 121.536Z" fill="#E6332A"/>
<path d="M169.048 117.507C166.742 116.016 164.449 114.588 162.016 113.076L157.093 110.01L156.369 113.266C156.313 113.526 156.257 113.794 156.2 114.054C156.095 114.567 155.996 115.052 155.87 115.51C155.546 116.684 155.244 117.865 154.949 119.047C154.245 121.846 153.577 124.483 152.543 127.008C152.311 127.57 151.889 128.266 151.193 128.4C150.448 128.541 149.477 128.069 148.612 127.148C148.514 127.043 148.408 126.937 148.303 126.832C148.141 126.67 147.902 126.424 147.846 126.332L147.768 126.185C144.991 120.995 142.122 115.636 139.407 110.32L139.428 110.299C147.361 101.543 154.393 91.5714 161.552 78.9201L162.769 76.7752L147.529 69.0467L146.58 71.4517C143.577 79.0467 139.52 86.1494 134.238 93.0271C132.15 82.8723 131.123 72.9707 130.441 64.2506L167.318 61.2267L166.348 46.1L129.456 49.2154V7.65401H110.856L112.339 50.5304L98.5208 51.1844L99.7022 67.0284L113.514 65.65C113.619 66.5291 113.718 67.3659 113.795 68.1957C115.202 83.7936 117.276 95.6923 120.525 106.789C120.588 106.993 120.609 107.127 120.616 107.19C120.574 107.239 120.483 107.331 120.321 107.45C119.112 108.379 117.979 109.363 116.889 110.32C115.961 111.128 115.082 111.895 114.161 112.626L112.747 113.751C108.24 117.345 103.915 120.784 99.1466 123.695V109.124H63.1198V98.3646H95.3632V38.1112H83.2394C89.02 30.6358 93.8583 22.9565 97.9582 14.7426L99.2029 12.2602L81.9384 6.90155L81.1719 9.01126C77.7682 18.3503 72.7049 27.4783 65.2506 37.7456C64.9412 38.1675 64.8919 38.2519 64.1817 38.2519C52.6064 38.1956 40.8342 38.1745 29.4558 38.1534L20.1309 38.1323C19.2448 38.1323 18.3587 38.1323 17.4445 38.1323H13.7595V98.3506H45.8764V109.089H7.21942V124.441H45.7287V149.835H63.1971V124.434H97.8668C96.5517 125.193 95.2155 125.925 93.8161 126.6C90.961 127.964 88.1128 129.406 85.3562 130.791C84.1114 131.417 82.8737 132.043 81.636 132.662L78.816 134.068L90.5882 146.691L92.1635 145.903C103.978 139.982 115.398 132.31 126.151 123.076C126.474 123.646 126.791 124.216 127.107 124.778C128.894 127.95 130.574 130.946 132.522 133.913C136.735 140.334 141.292 144.574 146.868 147.247C149.02 148.28 151.032 148.801 152.93 148.801C156.067 148.801 158.859 147.38 161.39 144.525C162.15 143.667 162.839 142.753 163.43 141.797C167.473 135.327 169.013 128.252 170.504 121.417L170.553 121.185C170.849 119.834 170.202 118.259 169.055 117.514L169.048 117.507ZM78.816 74.6866V84.7148H63.0635V74.6866H78.816ZM63.0635 61.6064V52.1057H78.8653V61.6064H63.0635ZM30.159 61.6205V52.0986H45.8764V61.6205H30.159ZM30.1309 84.6867V74.6444H45.785V84.6867H30.1309Z" fill="#E6332A"/>
<path d="M304.984 35.6007L307.038 35.6288L310.392 18.2658L307.6 18.2096C282.671 17.6751 262.031 15.1435 242.635 10.2349L240.589 9.71448L234.295 26.5008L236.883 27.1266C260.877 32.9072 284.773 34.6513 304.977 35.6007H304.984Z" fill="#E6332A"/>
<path d="M164.71 34.9397L145.715 10.5514L133.486 17.4783L151.51 42.6472L164.71 34.9397Z" fill="#E6332A"/>
<path d="M42.4094 16.5781C43.4853 18.8918 44.498 21.0788 45.3841 23.301C46.2702 25.5092 47.0226 27.7385 47.8173 30.1014C48.1689 31.1492 48.5276 32.2111 48.9003 33.28L49.6105 35.3194L66.0171 31.1562L55.7217 6.22644L39.8004 10.8889L40.9185 13.3573C41.4178 14.4543 41.9101 15.5303 42.4024 16.5781H42.4094Z" fill="#E6332A"/>
<path d="M36.9382 31.4024L23.865 8.26587L9.38538 13.3503L21.3053 36.4094L36.9382 31.4024Z" fill="#E6332A"/>
<path d="M344.186 115.317L341.703 115.858C341.478 115.908 341.295 115.943 341.127 115.978C340.733 116.055 340.43 116.126 340.142 116.21C329.298 119.368 317.948 120.823 306.401 120.528C299.312 120.345 296.14 117.989 295.086 112.11C294.678 109.818 294.375 107.441 294.094 105.134C293.827 102.996 293.553 100.781 293.18 98.594C291.738 90.0777 285.064 85.0074 275.796 85.352C271.942 85.4997 268.194 86.442 264.565 87.3984C275.275 79.7612 285.318 71.4419 295.107 63.3266C299.277 59.8666 303.595 56.2942 307.892 52.8272L309.811 51.2801L308.18 49.4306C307.484 48.643 306.773 47.8554 306.07 47.0748C304.439 45.2604 302.751 43.3898 301.232 41.4981C299.453 39.2758 297.399 38.5867 294.755 39.311C293.574 39.6345 292.259 39.8666 290.831 40.0002C288.714 40.1971 286.598 40.4081 284.474 40.612C278.77 41.1746 272.877 41.7512 267.083 42.1029C253.517 42.9327 239.945 43.5375 227.209 44.093C224.298 44.2196 221.393 44.1845 218.32 44.1493C216.9 44.1352 215.458 44.1141 214.002 44.1141H211.464L212.814 62.4475L275.894 56.7161C271.14 60.6754 266.394 64.6698 261.752 68.5657C240.908 86.0763 219.347 104.178 196.646 120.704L194.41 122.328L210.001 137.849L212.125 135.859C212.42 135.577 212.68 135.345 212.926 135.099C223.327 125.071 234.087 114.705 246.457 105.971C252.919 101.407 258.721 98.4181 265.965 98.594C269.417 98.6854 273.672 99.8387 274.333 104.825C274.776 108.172 275.1 111.618 275.416 114.951C275.529 116.147 275.641 117.335 275.761 118.531C276.513 126.154 279.839 131.28 285.936 134.206C287.821 135.113 289.804 135.711 291.717 136.295L292.378 136.498C293.862 136.956 295.416 137.138 296.998 137.047C303.771 136.667 342.814 134.361 344.495 134.086L346.774 133.714L344.165 115.31L344.186 115.317Z" fill="white"/>
<path d="M161.822 111.287C159.515 109.796 157.223 108.369 154.79 106.857L149.867 103.791L149.143 107.047C149.086 107.307 149.03 107.574 148.974 107.834C148.868 108.348 148.77 108.833 148.643 109.29C148.32 110.465 148.017 111.646 147.722 112.827C147.019 115.626 146.351 118.263 145.317 120.788C145.085 121.351 144.663 122.047 143.967 122.18C143.221 122.321 142.251 121.85 141.386 120.929C141.287 120.823 141.182 120.718 141.077 120.612C140.915 120.451 140.676 120.204 140.619 120.113L140.542 119.965C137.764 114.775 134.895 109.417 132.181 104.1L132.202 104.079C140.134 95.3238 147.167 85.3519 154.326 72.7007L155.542 70.5558L140.303 62.8272L139.354 65.2323C136.351 72.8273 132.293 79.93 127.012 86.8076C124.923 76.6529 123.896 66.7513 123.214 58.0311L160.092 55.0072L159.122 39.8806L122.23 42.9959V1.43459H103.629L105.113 44.311L91.2943 44.965L92.4758 60.8089L106.287 59.4306C106.393 60.3097 106.491 61.1465 106.569 61.9763C107.975 77.5741 110.05 89.4729 113.299 100.57C113.362 100.774 113.383 100.908 113.39 100.971C113.348 101.02 113.256 101.111 113.095 101.231C111.885 102.159 110.753 103.144 109.663 104.1C108.735 104.909 107.856 105.675 106.934 106.407L105.521 107.532C101.013 111.126 96.6881 114.564 91.9202 117.476V102.905H55.8933V92.1452H88.1368V31.8918H76.013C81.7936 24.4164 86.6318 16.737 90.7317 8.52322L91.9764 6.0408L74.712 0.682129L73.9454 2.79184C70.5418 12.1308 65.4785 21.2589 58.0241 31.5261C57.7147 31.9481 57.6655 32.0325 56.9552 32.0325C45.3799 31.9762 33.6077 31.9551 22.2293 31.934L12.9044 31.9129C12.0183 31.9129 11.1323 31.9129 10.218 31.9129H6.53308V92.1312H38.6499V102.87H0V118.221H38.5093V143.615H55.9777V118.214H90.6473C89.3323 118.974 87.9961 119.705 86.5967 120.38C83.7415 121.744 80.8934 123.186 78.1367 124.572C76.892 125.197 75.6543 125.823 74.4166 126.442L71.5966 127.849L83.3688 140.472L84.9441 139.684C96.7585 133.763 108.179 126.09 118.932 116.857C119.255 117.427 119.571 117.996 119.888 118.559C121.674 121.73 123.355 124.726 125.303 127.694C129.515 134.114 134.072 138.355 139.649 141.027C141.801 142.061 143.812 142.581 145.711 142.581C148.847 142.581 151.639 141.161 154.171 138.306C154.93 137.448 155.619 136.534 156.21 135.577C160.254 129.107 161.794 122.033 163.285 115.197L163.334 114.965C163.629 113.615 162.982 112.04 161.836 111.294L161.822 111.287ZM71.5896 68.4672V78.4954H55.8371V68.4672H71.5896ZM55.8371 55.387V45.8862H71.6388V55.387H55.8371ZM22.9326 55.401V45.8792H38.6499V55.401H22.9326ZM22.9045 78.4672V68.425H38.5585V78.4672H22.9045Z" fill="white"/>
<path d="M297.758 29.3743L299.811 29.4024L303.166 12.0395L300.374 11.9832C275.444 11.4487 254.804 8.91709 235.409 4.00849L233.362 3.4881L227.068 20.2744L229.656 20.9003C253.651 26.6809 277.547 28.4249 297.751 29.3743H297.758Z" fill="white"/>
<path d="M157.49 28.7132L138.496 4.33197L126.266 11.2589L144.29 36.4277L157.49 28.7132Z" fill="white"/>
<path d="M35.1829 10.3517C36.2589 12.6653 37.2716 14.8524 38.1576 17.0746C39.0437 19.2828 39.7962 21.512 40.5908 23.8749C40.9425 24.9227 41.3011 25.9846 41.6738 27.0536L42.3841 29.0929L58.7906 24.9298L48.4952 0L32.5739 4.66247L33.6921 7.13083C34.1914 8.22788 34.6836 9.30383 35.1759 10.3517H35.1829Z" fill="white"/>
<path d="M29.7118 25.176L16.6386 2.03943L2.16594 7.12384L14.0858 30.19L29.7118 25.176Z" fill="white"/>
</svg>
